<?xml version="1.0" encoding="UTF-8"?>
<svg id="Layer_1" data-name="Layer 1" xmlns="http://www.w3.org/2000/svg" viewBox="0 0 433.34 462.16">
  <defs>
    <style>
      .cls-1 {
        fill: #000;
        stroke-width: 0px;
      }
    </style>
  </defs>
  <path class="cls-1" d="M249.18,0c8.45,3.6,11,10.12,10.96,19.06-.24,59.1-.13,118.2-.13,177.3v5.83c1.95,0,3.56,0,5.16,0,16.69,0,33.39.08,50.08-.04,6.9-.05,12.55,2.03,15.56,8.56,3.03,6.57.73,12.15-3.79,17.3-32.71,37.31-65.35,74.7-98.05,112.02-7.75,8.85-16.84,8.85-24.58,0-32.7-37.32-65.34-74.71-98.05-112.02-4.52-5.15-6.83-10.74-3.79-17.3,3.01-6.52,8.66-8.61,15.56-8.56,18.19.11,36.38.04,55.24.04v-5.38c0-59.25.12-118.5-.13-177.75-.04-8.94,2.51-15.45,10.96-19.06h65Z"/>
  <path class="cls-1" d="M24.39,462.16c-8.95-2.56-16.89-6.73-20.85-15.65-1.84-4.16-3.33-8.88-3.37-13.36C-.09,395.4.02,357.65.03,319.91c0-.57.13-1.14.22-1.93h57.32v86.11h317.9v-86.1h57.87v108.86c0,20.84-4.99,28.07-24.37,35.32H24.39Z"/>
</svg>