<?xml version="1.0" encoding="UTF-8"?>
<svg id="Layer_1" data-name="Layer 1" xmlns="http://www.w3.org/2000/svg" viewBox="0 0 467.75 430.63">
  <defs>
    <style>
      .cls-1 {
        fill: #000;
        stroke-width: 0px;
      }
    </style>
  </defs>
  <path class="cls-1" d="M0,37.87c2.03-3.89,5.4-5.76,9.52-7.03C41.89,20.84,74.19,10.63,106.59.72c2.99-.91,6.73-.97,9.7-.06,32.82,10.06,65.57,20.38,98.33,30.67,6.44,2.02,8.26,4.58,8.27,11.31.01,27.7.04,55.41-.03,83.11-.01,5.27-.43,10.55-.69,16.26h5.13c29.38,0,58.76,0,88.14,0,11.23,0,13.5,2.31,13.5,13.72,0,9.86,0,19.73,0,30.2,1.98,0,3.6,0,5.21,0,22.38,0,44.75.06,67.13-.05,4.25-.02,7.58,1.28,10.58,4.3,17.16,17.28,34.4,34.49,51.68,51.65,2.88,2.86,4.23,6.02,4.22,10.14-.09,38.82-.04,77.63-.06,116.45,0,7.77-3.34,11.06-11.16,11.09-7.12.03-14.24,0-21.79,0,.9,16.13-3.93,29.72-16.05,40.18-8.63,7.45-18.8,11.15-30.2,10.91-13.48-.27-24.79-5.55-33.73-15.66-8.81-9.98-12.03-21.89-11.23-35.2h-157.24c.89,16.03-4.03,29.74-16.37,40.21-8.82,7.48-19.17,10.97-30.75,10.67-25.69-.67-41.49-18.68-44.48-51.11-3.55,0-7.16,0-10.77,0-14.46,0-28.92.02-43.38,0-8.1-.01-11.3-3.24-11.3-11.41-.01-50.84-.04-101.69.06-152.53,0-3.83-.93-6.85-3.24-10C11.85,186.14,3.37,164.43.82,140.44c-.11-1.02-.54-2-.82-3,0-33.19,0-66.38,0-99.57ZM218.53,160.43c-.43,1.4-.8,2.71-1.23,4-16.19,49.1-49.25,80.29-99.31,93.29-3.01.78-6.42,1.3-9.4.72-20.95-4.08-39.83-12.83-56.64-26.01-1.23-.96-2.49-1.9-4.17-3.17v131.99h4.26c15.22,0,30.44-.09,45.66.08,2.97.03,4.59-1.01,6.29-3.31,18.34-24.87,54.87-24.94,73.25-.15,1.81,2.43,3.58,3.46,6.67,3.46,40.64-.11,81.28-.07,121.92-.08,1.48,0,2.96-.12,4.83-.21,0-3.43,0-6.59,0-9.76,0-8.83-.14-17.66.08-26.48.13-5.42,4.44-9.33,9.42-9.15,4.92.18,8.54,3.97,8.73,9.3.12,3.19.04,6.39.04,9.59,0,8.78,0,17.55,0,26.7,6.91,0,13.27.1,19.63-.1,1.05-.03,2.31-1.21,3.06-2.19,20.12-26.34,54.77-26.33,75.05.05.68.89,1.73,2.09,2.63,2.12,6.63.18,13.26.1,19.75.1v-25.54c-8.59,0-16.81.02-25.03,0-7.79-.03-11.1-3.33-11.12-11.11-.03-8.33,0-16.66,0-25.42-9.99,0-19.54.02-29.09,0-17.85-.04-29.31-11.54-29.33-29.49-.03-20.09,0-40.18,0-60.27,0-1.61,0-3.22,0-4.9h-25.53c0,1.89,0,3.52,0,5.16,0,10.96.08,21.92-.06,32.88-.07,5.35-3.85,9.04-8.84,9.13-4.92.09-8.8-3.54-9.3-8.78-.13-1.36-.06-2.74-.06-4.11,0-24.51,0-49.01,0-73.52v-4.79h-92.13ZM204.62,47.52c-.77-.32-1.29-.59-1.85-.76-29.57-9.27-59.12-18.57-88.73-27.7-1.85-.57-4.23-.21-6.16.39-28.59,8.82-57.14,17.8-85.74,26.59-2.93.9-3.99,2.06-3.97,5.27.16,24.8.03,49.6.1,74.4.16,53.9,35.73,99.85,87.91,113.41,3.2.83,6.98.92,10.17.11,52.11-13.32,87.95-59.37,88.23-113.19.09-16.43.01-32.86.02-49.3,0-9.72,0-19.45,0-29.22ZM372.95,204.19c-.09,1.83-.21,3.16-.21,4.5-.01,20.24-.02,40.48,0,60.73,0,8.17,3.22,11.42,11.3,11.42,20.39.02,40.79.01,61.18,0,1.31,0,2.62-.16,4.19-.27,0-8.52.08-16.72-.08-24.91-.03-1.31-.89-2.88-1.86-3.85-15.11-15.23-30.29-30.41-45.53-45.51-1.07-1.06-2.8-1.98-4.25-2.01-8.06-.19-16.12-.09-24.74-.09ZM140.76,412.38c15-.04,27.29-12.36,27.3-27.37.01-15.02-12.25-27.35-27.25-27.41-15.24-.06-27.61,12.34-27.53,27.59.08,14.99,12.45,27.23,27.47,27.2ZM388.93,412.38c12.03.07,22.9-7.9,26.4-19.36,3.53-11.55-.97-24.1-11.03-30.8-10.13-6.75-23.36-6.14-32.56,1.81-1.44,1.24-1.8,3.71-2.73,5.58-1.4,2.84-2.83,5.68-4.31,8.48-.91,1.73-2.67,3.33-2.81,5.09-1.23,15.63,11.37,29.1,27.03,29.2ZM449.34,299.41h-17.86v17.61h17.86v-17.61Z"/>
  <path class="cls-1" d="M320.02,274.52c4.94.1,8.9,4.19,8.87,9.17-.03,5.19-4.26,9.24-9.43,9.03-4.87-.2-8.91-4.52-8.75-9.35.17-4.83,4.48-8.94,9.3-8.84Z"/>
  <path class="cls-1" d="M187.15,100.35c-.87,14.71-.07,29.75-2.92,44.06-7.7,38.6-31.24,63.99-68.77,76.1-2.42.78-5.48.72-7.95.03-40.68-11.34-70.41-49.99-70.91-92.28-.23-19.79-.07-39.58-.05-59.37,0-6.04,2.09-8.84,7.94-10.67,20.88-6.53,41.76-13.09,62.7-19.41,2.58-.78,5.8-.8,8.38-.03,20.95,6.31,41.83,12.85,62.71,19.4,6.12,1.92,8.03,4.66,8.05,11.05.03,10.35,0,20.7,0,31.06.27.02.54.03.81.05ZM54.81,104.23s.06,0,.09,0c0,8.52-.22,17.05.04,25.56.98,31.53,23.08,61.47,52.87,71.58,2.22.75,5.15.76,7.35-.01,30.49-10.73,52.09-40.32,52.79-72.57.37-16.73-.03-33.48.23-50.21.06-3.65-1.32-4.94-4.51-5.91-16.28-4.93-32.48-10.12-48.76-15.03-2.03-.61-4.56-.67-6.58-.06-16.71,5.06-33.34,10.41-50.05,15.48-2.68.81-3.6,1.89-3.55,4.69.18,8.82.07,17.65.07,26.47Z"/>
  <path class="cls-1" d="M140.83,394.32c-5.06.07-9.1-3.73-9.25-8.72-.16-5.07,4.09-9.41,9.17-9.36,4.9.04,9.01,4.17,9.03,9.05.02,4.98-3.92,8.96-8.95,9.03Z"/>
  <path class="cls-1" d="M389.18,394.32c-5.05.02-9.06-3.84-9.15-8.83-.1-5.07,4.22-9.37,9.28-9.26,4.9.11,8.97,4.28,8.93,9.16-.04,4.97-4.03,8.9-9.06,8.92Z"/>
  <path class="cls-1" d="M103.17,133.44c10.46-10.52,20.28-20.46,30.19-30.32,4.52-4.5,10.33-4.64,14.05-.53,3.24,3.58,3.38,8.66-.25,12.36-12.46,12.68-25.02,25.26-37.7,37.71-3.67,3.61-8.93,3.4-12.71-.27-7.09-6.88-14.09-13.85-20.94-20.96-3.74-3.89-3.6-9.09-.11-12.69,3.57-3.68,9.04-3.82,13.04.02,4.8,4.62,9.35,9.49,14.43,14.68Z"/>
</svg>