<svg width="282" height="282" viewBox="0 0 282 282" fill="none" xmlns="http://www.w3.org/2000/svg">
<g clip-path="url(#clip0_21_20)">
<path d="M132.738 30.1008H149.262V46.6243H132.738V30.1008Z" fill="#00007F"/>
<path d="M262.057 226.14V175.659H149.302H149.282V156.502L219.143 156.448V20.8106L208.715 15.7077C187.753 5.44991 164.338 0.0274658 141 0.0274658C117.662 0.0274658 94.2469 5.44991 73.2853 15.7077L62.8568 20.8106V156.448L132.759 156.502V175.659H20.0242V226.14H0V281.973H56.4088V226.14H36.5476V192.183H132.779V226.14H112.796V281.973H169.204V226.14H149.302V192.183H245.534V226.14H225.591V281.973H282V226.14H262.057ZM171.036 105.207H110.964V88.6834H171.036V105.207ZM110.964 121.73H171.036V139.924H110.964V121.73ZM79.3802 139.924V31.1207L80.5479 30.5496C99.2612 21.3917 120.166 16.5509 141 16.5509C161.834 16.5509 182.739 21.3917 201.453 30.5496L202.62 31.1207V139.924H187.56V72.16H94.4403V139.924H79.3802ZM39.8854 265.45H16.5234V242.663H39.8854V265.45ZM152.681 265.45H129.319V242.663H152.681V265.45ZM265.477 265.45H242.115V242.663H265.477V265.45Z" fill="#00007F"/>
</g>
<defs>
<clipPath id="clip0_21_20">
<rect width="282" height="282" fill="white"/>
</clipPath>
</defs>
</svg>
