<?xml version="1.0" encoding="UTF-8"?>
<svg id="Layer_1" data-name="Layer 1" xmlns="http://www.w3.org/2000/svg" viewBox="0 0 494.53 477.54">
  <defs>
    <style>
      .cls-1 {
        fill: #000;
        stroke-width: 0px;
      }
    </style>
  </defs>
  <path class="cls-1" d="M316.68,201.49c-.6-4.94-2.47-9.45-5.36-13.21l19.82-122.99c.74-4.58-2.2-8.94-6.71-9.98l-.22-.05c-4.52-1.04-9.07,1.59-10.41,6.03l-36.1,119.22c-8.9,4.47-15.07,13.59-15.07,24.21,0,15,12.19,27.2,27.19,27.2,2.79,0,5.44-.55,7.97-1.33l75.42,39.19c4.15,2.16,9.26.81,11.8-3.11l.11-.18c2.55-3.92,1.7-9.14-1.96-12.05l-66.48-52.96ZM276.38,204.73c0-7.4,6.03-13.43,13.43-13.43s13.44,6.03,13.44,13.43-6.03,13.44-13.44,13.44-13.43-6.03-13.43-13.44ZM494.53,204.73c0,91.03-59.74,168.35-142.06,194.88v-29.15c66.87-25.37,114.54-90.07,114.54-165.73,0-97.71-79.5-177.21-177.21-177.21S112.6,107.02,112.6,204.73c0,9.8.84,19.41,2.37,28.78h-27.83c-1.33-9.41-2.06-19.01-2.06-28.78C85.08,91.84,176.92,0,289.81,0c112.89,0,204.73,91.84,204.73,204.73ZM325.5,350.61l-63.02-62.33c-3.99-3.99-9.43-6.19-15-6.19h-31.79v-11.9c0-8.88-7.22-16.03-16.1-16.03H16.03C7.16,254.15,0,261.3,0,270.18v107.33h331.82v-11.7c0-5.71-2.27-11.21-6.33-15.2ZM298.04,352.67h-61.03c-1.38,0-2.48-1.1-2.48-2.48v-47.13c0-1.38,1.1-2.48,2.48-2.48h11.63c.62,0,1.31.28,1.79.69l49.33,47.13c1.65,1.51.55,4.26-1.72,4.26ZM331.83,386.37v35.51c0,8.86-7.18,16.04-16.04,16.04h-17.16c-3.1-21.28-21.44-37.64-43.57-37.64s-40.42,16.36-43.52,37.64h-86.98c-3.1-21.28-21.44-37.64-43.52-37.64s-40.42,16.36-43.52,37.64h-21.49c-8.86,0-16.04-7.18-16.04-16.04v-35.51h331.83ZM255.11,411.01c-18.37,0-33.3,14.86-33.3,33.23s14.93,33.3,33.3,33.3,33.23-14.93,33.23-33.3-14.86-33.23-33.23-33.23ZM255.11,460.89c-9.22,0-16.65-7.43-16.65-16.65s7.43-16.65,16.65-16.65,16.58,7.5,16.58,16.65-7.43,16.65-16.58,16.65ZM81.05,411.01c-18.37,0-33.3,14.86-33.3,33.23s14.93,33.3,33.3,33.3,33.23-14.93,33.23-33.3c0-18.37-14.86-33.23-33.23-33.23ZM81.05,460.89c-9.22,0-16.65-7.43-16.65-16.65s7.43-16.65,16.65-16.65,16.65,7.5,16.65,16.65c0,9.22-7.5,16.65-16.65,16.65Z"/>
</svg>