<?xml version="1.0" encoding="UTF-8"?>
<svg id="Layer_1" data-name="Layer 1" xmlns="http://www.w3.org/2000/svg" viewBox="0 0 474.69 474.66">
  <defs>
    <style>
      .cls-1 {
        fill: #000;
        stroke-width: 0px;
      }
    </style>
  </defs>
  <path class="cls-1" d="M313.92,367.75c0,7.44,0,14.73,0,22.02,0,12.12.06,24.24-.05,36.36-.02,2.63.55,4.15,3.16,5.52,9.56,5.02,13.99,15.27,11.47,25.4-2.61,10.45-11.31,17.53-22.23,17.55-45.92.08-91.85.08-137.77,0-10.93-.02-19.66-7.07-22.27-17.5-2.58-10.3,2.03-20.2,11.74-25.83,1.31-.76,2.71-2.71,2.72-4.12.17-19.29.11-38.59.09-57.88,0-.44-.2-.89-.36-1.55H30.87v98.97h-15.38v-99.23c-2.65,0-4.97.08-7.27-.02-5.1-.22-8.05-3.01-8.12-8.08-.13-9.88-.14-19.77,0-29.66.07-5.43,3.15-8.12,9.01-8.15,12.09-.06,24.18-.02,36.88-.02v-21.18c0-3.51,0-7.02,0-10.52,0-13.27.97-14.23,14.48-14.23h8.36v-14.96h15.22v14.62c7.05,1.15,8.1,5.97,7.96,11.99-.27,11.27-.08,22.55-.08,34.05h15.31c0-4.25,0-8.48,0-12.72,0-8.13-.07-16.27.03-24.4.07-5.66,2.93-8.45,8.6-8.57,4.59-.09,9.19-.02,14.13-.02v-14.92h15.31v14.28c6.94,2.86,7.85,4.21,7.86,11.23.01,11.61,0,23.21,0,35.08h8.22c5.37-18.77,17.97-29.11,38.03-30.62-.41-.9-.65-1.8-1.17-2.47-11.38-14.79-8.48-30.91-2.66-46.22,5.9-15.51,18.55-24.21,35.04-27.04,26.08-4.47,51.43,16.18,52.57,42.94.24,5.57.29,11.17,0,16.74-.12,2.25-1.08,4.61-2.18,6.63-1.72,3.16-3.89,6.07-6.07,9.39,20.15,1.52,32.79,11.55,38.37,30.67h31.23c0-7-.03-13.81,0-20.62.03-7.16,2.62-9.74,9.85-9.75,24.08-.02,48.16-.02,72.24,0,7.16,0,9.73,2.62,9.77,9.84.03,6.69,0,13.37,0,20.77h22.93c14.73,0,15.34.61,15.34,15.28,0,6.7.01,13.39,0,20.09-.02,8.15-2.36,10.5-10.5,10.56-1.41,0-2.82,0-4.74,0v99.28h-15.2v-98.98h-130.32ZM298.61,428.5c0-32.87.02-65.21,0-97.54-.01-15.23-9.54-24.72-24.78-24.74-24.22-.02-48.44-.02-72.66,0-15.6.01-25.02,9.4-25.03,24.96-.02,30.91,0,61.82,0,92.73,0,1.52.14,3.05.21,4.59h122.27ZM237.13,290.91c1.75,0,3.57-.29,5.25.05,10.54,2.11,17.59-1.98,21.7-11.74,1.14-2.72,3.33-5.2,3.74-7.99.63-4.21.45-8.61.05-12.88-1.21-12.9-7.83-22.05-19.99-26.73-11.54-4.44-24.51-1.17-32.88,7.79-9.36,10.03-10.88,22.8-7.18,34.42,3.38,10.61,10.52,21.08,25.49,17.12,1.19-.32,2.54-.04,3.82-.04ZM236.88,459.32c22.01,0,44.01,0,66.02,0,1.43,0,2.91.14,4.3-.12,4.11-.78,6.62-3.31,6.61-7.54,0-4.23-2.49-6.78-6.61-7.53-1.55-.28-3.18-.12-4.77-.12-43.38,0-86.75,0-130.13,0-1.59,0-3.23-.16-4.77.12-4.12.75-6.61,3.29-6.61,7.53,0,4.24,2.5,6.76,6.61,7.54,1.39.26,2.86.12,4.3.12,21.69,0,43.38,0,65.06,0ZM160.58,337.16H15.74v14.76h144.84v-14.76ZM459.14,337.16h-144.84v14.76h144.84v-14.76ZM360.06,321.19h60.64v-14.72h-60.64v14.72ZM61.69,291.1v30.16h14.61v-30.16h-14.61ZM137.45,321.42v-30.19h-14.55v30.19h14.55Z"/>
  <path class="cls-1" d="M84.03,107.18c-19.46,0-38.91.01-58.37,0-7.84,0-10.29-2.45-10.3-10.27-.01-28.87-.01-57.73,0-86.6C15.37,2.46,17.81.01,25.63,0c39.07-.01,78.14-.01,117.22,0,7.84,0,10.3,2.46,10.31,10.26.01,28.87.01,57.73,0,86.6,0,7.83-2.47,10.3-10.27,10.31-19.62.02-39.23,0-58.85,0ZM30.89,91.54h106.58V15.56H30.89v75.97Z"/>
  <path class="cls-1" d="M237.33,107.18c-19.62,0-39.23.01-58.85,0-7.48,0-10.01-2.56-10.01-10.08-.02-29.02-.02-58.05,0-87.07,0-7.49,2.54-10.01,10.07-10.01,39.23-.01,78.46-.01,117.69,0,7.49,0,10.02,2.55,10.02,10.07.02,29.02.02,58.05,0,87.07,0,7.48-2.56,10.01-10.08,10.02-19.62.02-39.23,0-58.85,0ZM290.61,91.66V15.69h-106.58v75.96h106.58Z"/>
  <path class="cls-1" d="M390.52,0c19.62,0,39.23-.01,58.85,0,7.47,0,9.99,2.56,9.99,10.09.02,29.02.02,58.05,0,87.07,0,7.46-2.57,9.99-10.1,9.99-39.23.01-78.46.01-117.69,0-7.45,0-9.98-2.57-9.98-10.1-.02-29.02-.02-58.05,0-87.07,0-7.47,2.55-9.98,10.09-9.98,19.62-.02,39.23,0,58.85,0ZM443.83,91.68V15.59h-106.63v76.1h106.63Z"/>
  <path class="cls-1" d="M390.48,229.66c-19.62,0-39.23.01-58.85,0-7.5,0-10.04-2.54-10.05-10.04-.02-29.02-.02-58.05,0-87.07,0-7.52,2.53-10.04,10.03-10.05,39.23-.01,78.46-.01,117.69,0,7.51,0,10.05,2.54,10.06,10.03.02,29.02.02,58.05,0,87.07,0,7.5-2.55,10.05-10.04,10.06-19.62.02-39.23,0-58.85,0ZM443.72,214.14v-75.96h-106.59v75.96h106.59Z"/>
  <path class="cls-1" d="M84.25,229.66c-19.62,0-39.23.01-58.85,0-7.49,0-10.03-2.55-10.04-10.05-.02-29.02-.02-58.05,0-87.07,0-7.51,2.53-10.03,10.04-10.03,39.23-.01,78.46-.01,117.69,0,7.5,0,10.04,2.54,10.04,10.04.02,29.02.02,58.05,0,87.07,0,7.49-2.55,10.04-10.05,10.04-19.62.02-39.23,0-58.85,0ZM137.66,138.16H30.91v75.92h106.75v-75.92Z"/>
  <path class="cls-1" d="M290.63,138.01h-106.6v76.27h7.09v15.32c-5.28,0-10.51.25-15.69-.08-4.6-.29-6.94-3.61-6.95-9.18-.03-26.94-.01-53.87-.01-80.81,0-2.87-.07-5.74.02-8.61.17-5.41,2.93-8.39,8.27-8.4,40.33-.06,80.65-.06,120.98,0,5.6,0,8.49,2.97,8.5,8.66.05,29.97.06,59.93,0,89.9-.01,5.63-2.95,8.45-8.62,8.56-4.59.09-9.18.02-14.04.02v-15.21h7.05v-76.43Z"/>
  <path class="cls-1" d="M233.76,166.25c-9.53,9.52-19.52,19.51-29.67,29.65-2.82-3.16-6.06-6.79-9.13-10.22,9.45-9.36,19.49-19.29,29.72-29.42,2.85,3.13,6.11,6.72,9.08,9.99Z"/>
  <path class="cls-1" d="M270.98,156.39c2.68,2.83,5.94,6.27,8.81,9.31-9.88,9.83-19.97,19.86-30.2,30.04-2.64-2.77-5.91-6.21-8.72-9.17,9.86-9.89,19.91-19.96,30.12-30.18Z"/>
  <path class="cls-1" d="M80.16,44.37c-9.01,9-19,18.98-29.16,29.13-3-3.14-6.35-6.64-9.41-9.84,9.72-9.73,19.6-19.63,29.33-29.37,2.84,3.1,6.17,6.74,9.23,10.09Z"/>
  <path class="cls-1" d="M87.26,63.78c10.06-10.06,20.05-20.04,30.18-30.17,3.15,3.18,6.57,6.61,9.72,9.78-10.08,10.08-20.06,20.07-30.19,30.19-3.14-3.16-6.55-6.61-9.72-9.8Z"/>
  <path class="cls-1" d="M234.1,43.6c-9.89,9.91-19.86,19.9-30.01,30.08-2.94-3.26-6.11-6.78-8.94-9.93,9.61-9.56,19.68-19.59,29.93-29.79,2.61,2.78,5.84,6.24,9.03,9.64Z"/>
  <path class="cls-1" d="M270.25,33.88c3.46,3.22,6.92,6.45,10.12,9.43-10.18,10.16-20.17,20.14-30.31,30.27-3.11-3.15-6.51-6.61-9.69-9.84,10.02-10.01,20.01-20,29.88-29.86Z"/>
  <path class="cls-1" d="M356.93,73.51c-2.99-3-6.35-6.36-9.42-9.44,10.1-10.05,20.11-20,30.2-30.04,2.74,3,6.01,6.58,8.96,9.8-9.38,9.36-19.37,19.33-29.74,29.68Z"/>
  <path class="cls-1" d="M394.4,62.71c9-8.92,19.04-18.86,29.16-28.89,2.94,3.18,6.23,6.74,9.23,10-9.45,9.45-19.33,19.33-28.88,28.87-2.86-2.99-6.26-6.56-9.52-9.98Z"/>
  <path class="cls-1" d="M356.72,195.8c-2.56-2.85-5.74-6.38-8.74-9.71,9.71-9.58,19.83-19.57,30.06-29.66,2.66,2.91,5.86,6.41,8.68,9.48-9.65,9.62-19.74,19.66-30,29.88Z"/>
  <path class="cls-1" d="M393.85,185.67c9.65-9.65,19.54-19.55,29.59-29.6,3.08,3.35,6.37,6.92,9.35,10.17-9.54,9.55-19.53,19.54-29.73,29.73-2.83-3.17-6.07-6.79-9.22-10.3Z"/>
  <path class="cls-1" d="M50.99,195.92c-3.21-3.12-6.61-6.43-9.77-9.5,10.14-10.08,20.15-20.04,30.35-30.18,2.85,3.14,6.11,6.73,9.07,9.99-9.51,9.52-19.5,19.52-29.66,29.69Z"/>
  <path class="cls-1" d="M96.67,195.95c-2.99-2.99-6.36-6.35-9.46-9.46,10.12-10.04,20.14-19.98,30.17-29.92,2.71,3.02,5.95,6.63,8.87,9.88-9.22,9.2-19.22,19.17-29.57,29.5Z"/>
</svg>