<?xml version="1.0" encoding="UTF-8"?>
<svg id="Layer_1" data-name="Layer 1" xmlns="http://www.w3.org/2000/svg" viewBox="0 0 476.86 476.85">
  <defs>
    <style>
      .cls-1 {
        fill: #000;
        stroke-width: 0px;
      }
    </style>
  </defs>
  <g id="supply--chain--optimization--02">
    <path id="supply--chain--optimization--02-2" data-name="supply--chain--optimization--02" class="cls-1" d="M155.41,476.85H22.58v-11.95h132.83v11.95ZM177.99,454.27h-11.95v-132.83h11.95v132.83ZM11.95,454.27H0v-132.83h11.95s0,132.83,0,132.83ZM412.76,418.73h-49.81c-3.3,0-5.98-2.67-5.98-5.98v-18.93h-151.75v-11.95h151.75v-18.93c0-3.3,2.67-5.98,5.98-5.98h18.93v-151.75h11.97v151.75h18.93c3.3,0,5.98,2.67,5.98,5.98v49.81c-.02,3.3-2.69,5.98-5.99,5.98ZM368.92,406.78h37.84v-37.86h-37.84v37.86ZM113.9,418.73h-49.81c-3.3,0-5.98-2.67-5.98-5.98v-49.81c0-3.3,2.67-5.98,5.98-5.98h49.81c3.3,0,5.98,2.67,5.98,5.98v49.81c0,3.3-2.67,5.98-5.98,5.98ZM70.07,406.78h37.86v-37.86h-37.86v37.86ZM155.41,310.81H22.58v-11.95h132.83v11.95ZM94.97,271.63h-11.95v-66.41h11.95s0,66.41,0,66.41ZM454.27,177.99h-132.83v-11.95h132.83v11.95ZM155.41,177.99H22.58v-11.95h132.83v11.95ZM476.85,155.41h-11.95V22.58h11.97l-.02,132.83h0ZM310.81,155.41h-11.95V22.58h11.97l-.02,132.83h0ZM177.99,155.41h-11.95V22.58h11.95v132.83ZM11.95,155.41H0V22.58h11.95s0,132.83,0,132.83ZM412.76,119.88h-49.81c-3.3,0-5.98-2.67-5.98-5.98v-49.81c0-3.3,2.67-5.98,5.98-5.98h49.81c3.3,0,5.98,2.67,5.98,5.98v49.81c0,3.3-2.67,5.98-5.98,5.98ZM368.92,107.92h37.84v-37.86h-37.84v37.86ZM113.9,119.88h-49.81c-3.3,0-5.98-2.67-5.98-5.98v-49.81c0-3.3,2.67-5.98,5.98-5.98h49.81c3.3,0,5.98,2.67,5.98,5.98v49.81c0,3.3-2.67,5.98-5.98,5.98ZM70.07,107.92h37.86v-37.86h-37.86v37.86ZM271.63,94.97h-66.41v-11.95h66.41v11.95ZM454.27,11.95h-132.83V0h132.83v11.95ZM155.41,11.95H22.58V0h132.83v11.95Z"/>
  </g>
</svg>