<?xml version="1.0" encoding="UTF-8"?>
<svg id="Layer_1" data-name="Layer 1" xmlns="http://www.w3.org/2000/svg" viewBox="0 0 484.76 270.66">
  <defs>
    <style>
      .cls-1 {
        fill: #000;
        stroke-width: 0px;
      }
    </style>
  </defs>
  <path class="cls-1" d="M195.15,137.63c-31.93-8.87-24.83-53.21-24.83-53.21,0,0-154.05-42.86-156.33-43.51C2.72,37.9-.64,48.62.1,54.48c18.06,144.12,108.14,216.18,108.14,216.18h349.43c24.74-20.64,27.11-82.14,27.11-82.14,0,0-257.69-42.02-289.62-50.89ZM88.61,149.58c-7.23,0-13.09-5.86-13.09-13.09s5.86-13.09,13.09-13.09,13.1,5.86,13.1,13.09c0,7.23-5.86,13.09-13.1,13.09Z"/>
  <polygon class="cls-1" points="320.07 20.82 222.9 0 196.22 19.27 196.22 36.72 320.07 63.26 320.07 20.82"/>
  <polygon class="cls-1" points="430.36 44.46 331.68 23.31 331.68 65.75 430.36 86.9 430.36 44.46"/>
  <polygon class="cls-1" points="352.32 82.27 257.71 61.99 257.71 91.43 352.32 108.9 352.32 82.27"/>
  <path class="cls-1" d="M257.71,138.01c27.76,5.01,61.57,10.85,94.61,16.46v-31.13l-94.61-17.48v32.15Z"/>
  <polygon class="cls-1" points="456.38 104.56 366.51 85.3 366.51 111.52 456.38 128.12 456.38 104.56"/>
  <path class="cls-1" d="M366.51,156.87c34.68,5.87,67.37,11.29,89.88,15v-29.33l-89.88-16.59v30.92Z"/>
  <path class="cls-1" d="M198.31,126.23c6.55,1.82,23.13,5.12,45.21,9.19v-32.18l-62-11.45c-.41,9.87.79,30,16.78,34.44Z"/>
  <path class="cls-1" d="M183.66,75.86l-.29,1.83,60.16,11.11v-29.86l-118.26-25.34-25.99,18.76c37.33,10.39,73.46,20.45,74.2,20.65l10.17,2.84Z"/>
</svg>